#!OML:ASF F:\VICON\USERDATA\INSTALL\rory3\rory3.ASF
:FULLY-SPECIFIED
:DEGREES
90
root 0.7101786313480793 17.777745216536665 38.97959831634627 -3.263229400136582 -5.9156042128331325 -2.2312453038866846
lfemur -18.16343023932569 -2.6640751630857578 -20.028984385675855
ltibia 28.591347078095744
lfoot -5.340883560493471 -1.051888484897775
ltoes 2.1783057343169614
rfemur -0.11757517483275137 2.9951250998882815 24.838482450566943
rtibia 57.681964893452204
rfoot 11.639706908300244 0.42298179389221957
rtoes 7.2419899851110285
lowerback 9.273593829305966 2.980762124610604 2.6848084486370682
upperback 0.3811467280396015 4.245543868119304 0.5052588599808692
thorax -4.745040290860608 2.052678042495099 -1.316088284792516
lowerneck -16.32952670675758 -3.0335559320160708 -1.9376953641532173
upperneck 20.55683090605916 -4.022864479989269 1.5736042254162017
head 9.229030129038641 -1.8729714764037797 0.3338940831065171
lclavicle -1.906299309328552e-15 9.500343983598321e-16
lhumerus -38.34337376568441 10.59576163515241 79.50578802073424
lradius 17.41446855401754
lwrist 0.607162578149619
lhand -26.550952765910093 23.537543656084132
lfingers 7.12502
lthumb 0.013682394134367004 53.49918672796448
rclavicle -1.906299309328552e-15 9.500343983598321e-16
rhumerus -25.83786829335648 -15.063410955400304 -81.35657054561027
rradius 28.38385050091071
rwrist 4.275050881138648
rhand -17.7168902577339 23.552915793885518
rfingers 7.12502
rthumb 8.543506996408423 -6.2556584945926
91
root 0.7673974833845488 17.825464959398488 39.91274733217905 -3.6862662477755093 -5.946143683424675 -1.049796318775732
lfemur -15.185157791235708 -2.813644072461822 -21.960407223448993
ltibia 28.43085238265391
lfoot -7.329340318271122 0.13750481188902153
ltoes 2.451965395976924
rfemur -5.7013242776884825 1.8358552824583536 22.960160902335712
rtibia 65.14652787042542
rfoot 12.055144024780859 -2.3766499841266113
rtoes 10.199142631265445
lowerback 9.549887584345262 2.7533967230018317 1.5315483347130396
upperback 0.5185542593402712 3.81796224356753 0.32855322432253575
thorax -4.8016928801710295 1.8625287085882452 -0.8264510323241033
lowerneck -16.363558910949404 -2.9122341779941845 -2.0146313796743005
upperneck 20.530278283000005 -3.8356224323235786 1.4960049536634235
head 9.222789183285906 -1.7960093075978187 0.355506260879899
lclavicle -1.8783272645605425e-15 9.757234666262194e-16
lhumerus -37.15247689080383 9.218303363190754 80.21537430037029
lradius 18.28309233789034
lwrist 2.129459623913365
lhand -27.424958403376063 23.09649086212127
lfingers 7.12502
lthumb -0.8304318555123377 53.04866033425135
rclavicle -1.8783272645605425e-15 9.757234666262194e-16
rhumerus -26.271971702639828 -15.869528107582303 -81.27857200617403
rradius 27.766845821051096
rwrist 5.376114042953113
rhand -17.5190511867711 23.224695798175922
rfingers 7.12502
rthumb 8.734458421019355 -6.576394941515742
92
root 0.8070104186596709 17.864755428632183 40.949887519381946 -3.952423160463554 -5.691684791642061 -0.1923664988001763
lfemur -12.043499838138004 -3.008567872533462 -23.29107698685162
ltibia 28.239839294803346
lfoot -9.122073249297074 1.3577427793503098
ltoes 2.3873815795566897
rfemur -11.246341896500198 0.7584550962419123 21.97024185329463
rtibia 70.61679800364958
rfoot 8.095738174565955 -4.677309975428838
rtoes 11.288847746983505
lowerback 9.792466659446976 2.396138599832381 0.6897624024811636
upperback 0.6521287792688018 3.251706819207334 0.3107542979140643
thorax -4.840584735737537 1.599854419728216 -0.2851090838678584
lowerneck -16.266779816190454 -2.7780180608591487 -2.073110109492133
upperneck 20.520970529456438 -3.624711798011595 1.3903447500604265
head 9.204632223532585 -1.7127501320225442 0.36849180130830356
lclavicle -1.6688274900562038e-15 1.1680604369047244e-15
lhumerus -35.508098575931456 7.6894314135663 80.97379698543278
lradius 19.031447541198574
lwrist 3.057167592404733
lhand -28.46609662655685 21.303605623114144
lfingers 7.12502
lthumb -1.8359516703727925 51.25301029117378
rclavicle -1.6688274900562038e-15 1.1680604369047244e-15
rhumerus -26.590267622315416 -16.558381129693093 -81.13243196979177
rradius 27.143617510423066
rwrist 6.394279084735795
rhand -17.17289844857495 22.706817549373998
rfingers 7.12502
rthumb 9.068519595895463 -7.080337195059234
93
root 0.8341006427196513 17.884832302563048 41.9494900881386 -4.096262319199575 -5.1504249433495 0.47725911191154635
lfemur -8.987371536387016 -3.3658842252953103 -24.358372953282505
ltibia 27.753709073914287
lfoot -10.739714944312558 2.422711909777812
ltoes 2.428590838532259
rfemur -16.336542951578142 -0.005242901919109144 21.4630911595264
rtibia 72.70842773936037
rfoot 2.304758876678246 -5.851079509395323
rtoes 9.894722212613994
lowerback 9.986148107059192 1.9489770153100614 0.01804991160715863
upperback 0.7558095611981376 2.584555247435044 0.363962708806322
thorax -4.862267537537742 1.2845572532009208 0.24605816567163885
lowerneck -16.182064178000353 -2.6931794839121515 -2.300613166022882
upperneck 20.53532174760825 -3.4749494694949945 1.4021043948261132
head 9.19713369521939 -1.6554816271278017 0.4304268238352559
lclavicle -1.4766103734230155e-15 1.3449723965451852e-15
lhumerus -33.58185558196972 5.903797569173441 81.62982143567606
lradius 19.94436411141604
lwrist 3.520030376634977
lhand -28.92667463341606 20.594723779527502
lfingers 7.12502
lthumb -2.280809389871929 50.549922806919824
rclavicle -1.4766103734230155e-15 1.3449723965451852e-15
rhumerus -26.988040090918567 -16.9262943381416 -81.01220066249508
rradius 26.79094048208242
rwrist 6.67568359968506
rhand -16.93942467489782 22.25091424045615
rfingers 7.12502
rthumb 9.293797800391525 -7.525822894133952
94
root 0.8481406142760397 17.874103753527734 42.65625579099178 -4.089853953668918 -4.3226465263182625 1.0019575137802037
lfemur -6.350713438113744 -3.6677299882206382 -25.320244434605232
ltibia 27.364274208419953
lfoot -12.40783041735305 3.057941838388751
ltoes 2.1198625828079964
rfemur -20.961979197769644 -0.7269760940457903 21.207418699162403
rtibia 71.52257587232508
rfoot -3.124690883071331 -6.225663433487763
rtoes 7.7074681034377726
lowerback 10.159244712315754 1.3988861555505852 -0.6638453260367514
upperback 0.8464206650449153 1.7778906915477204 0.4591513867258217
thorax -4.8713993566606755 0.9012429603210415 0.8076581014569918
lowerneck -16.205331329898407 -2.655495368909333 -2.542109455215538
upperneck 20.607292628567443 -3.3905362526420237 1.4291383688441601
head 9.224052657702158 -1.625397294484993 0.4897968925370385
lclavicle -1.4503760247528685e-15 1.369699340836426e-15
lhumerus -31.28233125209532 3.9658859584891584 82.10808981804328
lradius 20.92214971095012
lwrist 3.7666469261647713
lhand -28.61913404207556 20.923992776937844
lfingers 7.12502
lthumb -1.9838005185092027 50.885198302457546
rclavicle -1.4503760247528685e-15 1.369699340836426e-15
rhumerus -27.485112473674068 -17.03784206036379 -80.9537699019663
rradius 26.70837249034989
rwrist 6.341064779054447
rhand -16.908545760841008 22.194600536900506
rfingers 7.12502
rthumb 9.323577290113652 -7.580407731647932
